<svg t="1710400669279" class="icon" viewBox="0 0 1024 1024" version="1.1" xmlns="http://www.w3.org/2000/svg">
  <path d="M928 480c-17.7 0-32 14.3-32 32s14.3 32 32 32 32-14.3 32-32-14.3-32-32-32zM96 480c-17.7 0-32 14.3-32 32s14.3 32 32 32 32-14.3 32-32-14.3-32-32-32zM512 96c-17.7 0-32 14.3-32 32s14.3 32 32 32 32-14.3 32-32-14.3-32-32-32zM512 864c-17.7 0-32 14.3-32 32s14.3 32 32 32 32-14.3 32-32-14.3-32-32-32zM732.2 291.8c-12.5-12.5-32.8-12.5-45.3 0s-12.5 32.8 0 45.3c12.5 12.5 32.8 12.5 45.3 0s12.5-32.8 0-45.3zM291.8 732.2c-12.5-12.5-32.8-12.5-45.3 0s-12.5 32.8 0 45.3c12.5 12.5 32.8 12.5 45.3 0s12.5-32.8 0-45.3zM732.2 732.2c-12.5-12.5-32.8-12.5-45.3 0s-12.5 32.8 0 45.3c12.5 12.5 32.8 12.5 45.3 0s12.5-32.8 0-45.3zM291.8 291.8c-12.5-12.5-32.8-12.5-45.3 0s-12.5 32.8 0 45.3c12.5 12.5 32.8 12.5 45.3 0s12.5-32.8 0-45.3z"/>
  <path d="M451.1 332.5c-6.5-18.5-33.2-18.5-39.7 0l-46.1 131.2-131.2 46.1c-18.5 6.5-18.5 33.2 0 39.7l131.2 46.1 46.1 131.2c6.5 18.5 33.2 18.5 39.7 0l46.1-131.2 131.2-46.1c18.5-6.5 18.5-33.2 0-39.7L497.2 463.7 451.1 332.5z"/>
</svg> 
